<?xml version="1.0" encoding="utf-8"?>
<!-- Generator: Adobe Illustrator 22.1.0, SVG Export Plug-In . SVG Version: 6.00 Build 0)  -->
<svg version="1.1" id="Слой_1" xmlns="http://www.w3.org/2000/svg" xmlns:xlink="http://www.w3.org/1999/xlink" x="0px" y="0px"
	 viewBox="0 0 2297 1060" style="enable-background:new 0 0 2297 1060;" xml:space="preserve">
<style type="text/css">
	.st0{opacity:2.000000e-02;fill:#FFFFFF;enable-background:new    ;}
	.st1{opacity:0.12;fill:#A999D2;enable-background:new    ;}
	.st2{opacity:3.000000e-02;fill:#FFFFFF;enable-background:new    ;}
	.st3{opacity:4.000000e-02;fill:#FFFFFF;enable-background:new    ;}
	.st4{opacity:5.000000e-02;fill:#FFFFFF;enable-background:new    ;}
</style>
<g id="bg">
	<path id="Эллипс_547_копия_3" class="st0" d="M-135.3,1276.2C-919.1,838.6-846.5,429.7-732.9,122.9
		c115.8-312.7,1027.2,25.9,1778.6,407.4c748.1,379.8,1279.2,179.7,1250.2,529C2268.6,1388.3,599.1,1686.3-135.3,1276.2z"/>
	<path id="Эллипс_547_копия_2" class="st0" d="M778.1,1940C48.6,1399.8-1308.8,449.4-1328.8,204.8
		C-1347-16.7,235.3,302.3,952.9,665.4s1341.6,797.1,1208.9,1090.1C2044.6,2014.5,1438.3,2428.9,778.1,1940z"/>
	<path id="Эллипс_547_копия" class="st1" d="M-101.8,1303.4c-609.8-346.9-691.1-540.3-515-784.4
		c205.4-284.7,490.8-45.6,1062.7,254.7c581.9,305.7,1335.7,362.1,1225,596.9C1655.6,1402.8,469.6,1628.5-101.8,1303.4z"/>
	<path id="Эллипс_547_копия_4" class="st2" d="M-288.6,1253c320.3,216.3,1436.5,205.8,1495.8,179.3
		c107.1-47.9-909.7-445-1333.5-691.5c-73.9-43-159.2-118.2-227,21.6S-311.8,1237.4-288.6,1253z"/>
	<path id="Эллипс_547" class="st3" d="M-182.4,1613.8c639.5,329.4,979,154,1059.6,116.2c145.7-68.2-241.4-436-800.1-788.3
		S-668,690.5-762,884.5S-765.1,1313.7-182.4,1613.8z"/>
	<path id="Эллипс_547_копия_5" class="st4" d="M-104.4,1795.2C525.2,2146,490,1977.1,571.7,1942.1
		c147.6-63.3,151-439-397.2-809.9s-737.5-276.2-837.1-85.4S-678.1,1475.6-104.4,1795.2z"/>
</g>
</svg>
